<svg xmlns="http://www.w3.org/2000/svg" viewBox="-10 -10 120 120" width="100%" height="100%">
  <defs>
    <linearGradient id="coreGrad" x1="0%" y1="0%" x2="100%" y2="100%">
      <stop offset="0%" stop-color="#282D36" />
      <stop offset="100%" stop-color="#0F1115" />
    </linearGradient>

    <linearGradient id="barGrad" x1="0%" y1="0%" x2="100%" y2="100%">
      <stop offset="0%" stop-color="#323844" />
      <stop offset="100%" stop-color="#181B22" />
    </linearGradient>

    <linearGradient id="sparkGrad" x1="0%" y1="100%" x2="100%" y2="0%">
      <stop offset="0%" stop-color="#0055FF" />
      <stop offset="50%" stop-color="#00D4FF" />
      <stop offset="100%" stop-color="#00FFD1" />
    </linearGradient>
  </defs>

  <!-- Light gray background with rounded corners -->
  <rect x="5" y="5" width="90" height="90" rx="22.5" fill="#F0F2F5" />

  <!-- Added strokes for better definition on lighter backgrounds -->
  <path
    d="M 29 15 L 54 15 A 3 3 0 0 1 57 18 L 57 54 A 3 3 0 0 1 54 57 L 18 57 A 3 3 0 0 1 15 54 L 15 29 A 14 14 0 0 1 29 15 Z"
    fill="url(#coreGrad)" stroke="#1a1c20" stroke-width="0.5" />

  <path
    d="M 18 63 L 54 63 A 3 3 0 0 1 57 66 L 57 82 A 3 3 0 0 1 54 85 L 29 85 A 14 14 0 0 1 15 71 L 15 66 A 3 3 0 0 1 18 63 Z"
    fill="url(#barGrad)" stroke="#1a1c20" stroke-width="0.5" />

  <path
    d="M 66 43 L 82 43 A 3 3 0 0 1 85 46 L 85 71 A 14 14 0 0 1 71 85 L 66 85 A 3 3 0 0 1 63 82 L 63 46 A 3 3 0 0 1 66 43 Z"
    fill="url(#barGrad)" stroke="#1a1c20" stroke-width="0.5" />

  <path d="M 74 15 Q 74 26 63 26 Q 74 26 74 37 Q 74 26 85 26 Q 74 26 74 15 Z" fill="url(#sparkGrad)" />
</svg>